#!OML:ASF E:\Style4\Style4.ASF
:FULLY-SPECIFIED
:DEGREES
2423
root 0.118021 16.8185 -0.23062 -6.21639 1.14041 3.52464
lowerback 12.8075 3.56122 -4.94216
upperback 7.96912 4.19488 -1.66717
thorax 1.00127 1.97554 0.535611
lowerneck 4.38092 -4.31291 -5.64868
upperneck 0.101842 -5.95463 7.91316
head -0.293378 -3.05823 3.63256
rclavicle -3.19049e-014 1.27222e-014
rhumerus -5.15874 2.91942 -78.6527
rradius 125.245
rwrist 23.5757
rhand 23.0327 -4.96449
rfingers 7.12502
rthumb 47.3491 -27.4754
lclavicle -3.19049e-014 1.27222e-014
lhumerus -21.6762 -21.135 89.5967
lradius 125.815
lwrist -15.6096
lhand 24.76 43.1848
lfingers 7.12502
lthumb 48.9407 64.9464
rfemur -15.6221 -2.20872 14.7327
rtibia 53.8496
rfoot -26.1786 -19.7909
rtoes -17.0008
lfemur -13.2678 1.87309 -22.0553
ltibia 48.3663
lfoot -27.7453 8.25455
ltoes -17.043
2424
root 0.101935 16.8638 -0.232605 -5.99829 1.50273 3.37528
lowerback 12.6765 3.65661 -4.6717
upperback 7.97116 4.36017 -1.55244
thorax 1.07376 2.06485 0.492572
lowerneck 4.26299 -4.49744 -5.61761
upperneck 0.083984 -6.19486 7.80278
head -0.264649 -3.17499 3.58498
rclavicle -1.23246e-014 4.57205e-015
rhumerus -5.03023 2.74021 -78.9362
rradius 124.437
rwrist 23.6245
rhand 22.6923 -4.99272
rfingers 7.12502
rthumb 47.0344 -27.6438
lclavicle -1.23246e-014 4.57205e-015
lhumerus -21.9523 -21.0132 89.1905
lradius 126.145
lwrist -15.7264
lhand 25.5487 43.114
lfingers 7.12502
lthumb 49.6644 64.5112
rfemur -15.4874 -2.4039 14.908
rtibia 53.3182
rfoot -25.955 -19.5464
rtoes -16.3351
lfemur -13.2005 1.73161 -21.8445
ltibia 47.6674
lfoot -27.2196 8.07563
ltoes -17.0454
2425
root 0.0855618 16.9106 -0.237885 -5.78669 1.85789 3.25179
lowerback 12.7492 3.75371 -4.45457
upperback 7.859 4.50279 -1.44101
thorax 0.91521 2.14576 0.461478
lowerneck 4.17336 -4.6782 -5.5773
upperneck 0.193164 -6.43636 7.71381
head -0.20016 -3.2923 3.54123
rclavicle -3.32964e-015 1.33186e-014
rhumerus -5.06161 2.5708 -79.2367
rradius 123.678
rwrist 23.7273
rhand 22.5781 -4.84759
rfingers 7.12502
rthumb 46.9288 -27.5451
lclavicle -3.32964e-015 1.33186e-014
lhumerus -22.3354 -20.9414 88.7797
lradius 126.482
lwrist -15.6322
lhand 25.9022 43.0163
lfingers 7.12502
lthumb 49.9882 64.2452
rfemur -15.3413 -2.57079 15.0557
rtibia 52.7632
rfoot -25.7063 -19.3258
rtoes -15.7228
lfemur -13.1049 1.64137 -21.6418
ltibia 46.9061
lfoot -26.7997 7.90171
ltoes -17.3472
2426
root 0.0704981 16.9576 -0.24305 -5.55295 2.20237 3.27412
lowerback 12.7026 3.84592 -4.3691
upperback 7.79537 4.63553 -1.35356
thorax 0.865857 2.21529 0.488678
lowerneck 4.18496 -4.84073 -5.55856
upperneck 0.168634 -6.65224 7.58217
head -0.19936 -3.39913 3.49304
rclavicle -1.90336e-014 -1.70955e-014
rhumerus -5.07848 2.46236 -79.5013
rradius 122.949
rwrist 23.9519
rhand 22.5927 -4.82697
rfingers 7.12502
rthumb 46.9422 -27.5186
lclavicle -1.90336e-014 -1.70955e-014
lhumerus -22.6654 -20.8503 88.4015
lradius 126.75
lwrist -15.4125
lhand 25.8044 42.9563
lfingers 7.12502
lthumb 49.8987 64.232
rfemur -15.23 -2.74312 15.0199
rtibia 52.1686
rfoot -25.4172 -19.1147
rtoes -15.1712
lfemur -12.9965 1.56455 -21.5964
ltibia 46.1014
lfoot -26.437 7.71004
ltoes -17.4321
2427
root 0.0574859 17.0015 -0.246725 -5.28562 2.5247 3.3646
lowerback 12.5078 3.93997 -4.28713
upperback 7.78139 4.78166 -1.29198
thorax 0.94978 2.28948 0.501502
lowerneck 4.2199 -5.00029 -5.56819
upperneck 0.0627878 -6.8629 7.4499
head -0.228433 -3.50423 3.45269
rclavicle -1.92324e-014 1.30204e-014
rhumerus -5.05152 2.34533 -79.7436
rradius 122.175
rwrist 24.3414
rhand 22.5969 -4.85897
rfingers 7.12502
rthumb 46.9461 -27.5489
lclavicle -1.92324e-014 1.30204e-014
lhumerus -22.842 -20.6212 88.046
lradius 127.014
lwrist -15.1834
lhand 25.8814 42.8531
lfingers 7.12502
lthumb 49.9692 64.092
rfemur -15.1738 -2.87414 14.8955
rtibia 51.5548
rfoot -25.1799 -19.0104
rtoes -15.0625
lfemur -12.8772 1.35706 -21.6583
ltibia 45.2812
lfoot -26.1069 7.31087
ltoes -16.1615
2428
root 0.0432252 17.0434 -0.251824 -5.0469 2.82329 3.30677
lowerback 12.484 4.05494 -4.00674
upperback 7.68762 4.96118 -1.24161
thorax 0.872686 2.39038 0.374606
lowerneck 4.28378 -5.21589 -5.40004
upperneck 0.00746879 -7.14325 7.27417
head -0.249854 -3.64383 3.36445
rclavicle 4.25896e-014 -3.25013e-014
rhumerus -5.17298 2.13224 -80.0441
rradius 121.415
rwrist 24.764
rhand 22.5585 -5.02393
rfingers 7.12502
rthumb 46.9106 -27.7294
lclavicle 4.25896e-014 -3.25013e-014
lhumerus -22.9988 -20.6357 87.5819
lradius 127.334
lwrist -14.8495
lhand 25.7735 42.8632
lfingers 7.12502
lthumb 49.8704 64.1538
rfemur -15.0989 -2.91749 14.9663
rtibia 50.9451
rfoot -25.0049 -19.0785
rtoes -15.168
lfemur -12.7585 1.14371 -21.5565
ltibia 44.4839
lfoot -25.6529 7.14056
ltoes -15.8031
2429
root 0.0298711 17.0865 -0.257097 -4.81259 3.08358 3.27026
lowerback 12.4498 4.17275 -3.74539
upperback 7.60692 5.14357 -1.18956
thorax 0.814936 2.49124 0.260899
lowerneck 4.32699 -5.4172 -5.26704
upperneck 0.0259605 -7.40812 7.14344
head -0.243031 -3.77532 3.29619
rclavicle -3.35201e-014 2.02263e-014
rhumerus -5.28384 1.96574 -80.3013
rradius 120.68
rwrist 25.1257
rhand 22.3028 -5.16659
rfingers 7.12502
rthumb 46.674 -27.9751
lclavicle -3.35201e-014 2.02263e-014
lhumerus -22.9429 -20.712 86.9743
lradius 127.637
lwrist -14.4716
lhand 25.7275 42.9158
lfingers 7.12502
lthumb 49.8282 64.2283
rfemur -14.9956 -3.01642 15.0221
rtibia 50.3584
rfoot -24.6724 -19.006
rtoes -15.1714
lfemur -12.6377 0.982236 -21.4876
ltibia 43.6865
lfoot -25.255 7.35371
ltoes -16.9239
2430
root 0.0177635 17.1318 -0.262032 -4.5424 3.32177 3.31502
lowerback 12.2233 4.26732 -3.60554
upperback 7.62171 5.29706 -1.08934
thorax 0.948532 2.56935 0.286308
lowerneck 4.28087 -5.5607 -5.19966
upperneck -0.033057 -7.59344 6.88861
head -0.253938 -3.86472 3.1967
rclavicle 2.6193e-014 -1.15544e-014
rhumerus -5.3802 1.94673 -80.5009
rradius 120.139
rwrist 25.5051
rhand 22.0806 -5.18241
rfingers 7.12502
rthumb 46.4682 -28.0794
lclavicle 2.6193e-014 -1.15544e-014
lhumerus -22.6186 -20.6279 86.4054
lradius 127.947
lwrist -14.0699
lhand 25.6836 42.949
lfingers 7.12502
lthumb 49.7881 64.2823
rfemur -14.9281 -3.21095 14.9716
rtibia 49.7879
rfoot -24.2676 -18.703
rtoes -14.733
lfemur -12.5608 0.801864 -21.5231
ltibia 42.8888
lfoot -24.8639 7.44711
ltoes -17.26
2431
root 0.0077448 17.1759 -0.267572 -4.25684 3.56203 3.36182
lowerback 12.0068 4.35749 -3.44436
upperback 7.60146 5.44412 -0.982745
thorax 1.04153 2.6456 0.305859
lowerneck 4.2446 -5.69838 -5.1297
upperneck -0.0256083 -7.77406 6.59408
head -0.248081 -3.95115 3.0827
rclavicle 3.79306e-014 -2.80286e-014
rhumerus -5.61932 1.96862 -80.7417
rradius 119.755
rwrist 26.0058
rhand 22.5755 -5.15695
rfingers 7.12502
rthumb 46.9264 -27.8555
lclavicle 3.79306e-014 -2.80286e-014
lhumerus -22.3327 -20.5542 85.8844
lradius 128.362
lwrist -13.6842
lhand 25.6296 43.1051
lfingers 7.12502
lthumb 49.7385 64.4641
rfemur -14.9306 -3.34553 14.9074
rtibia 49.2081
rfoot -23.8101 -18.5327
rtoes -14.612
lfemur -12.5066 0.556356 -21.5684
ltibia 42.0991
lfoot -24.4964 7.33068
ltoes -16.4474
2432
root -0.00111161 17.2165 -0.273276 -4.02124 3.76419 3.33205
lowerback 11.9606 4.46298 -3.15861
upperback 7.50956 5.61139 -0.871879
thorax 0.97799 2.73821 0.242819
lowerneck 4.3032 -5.85704 -5.1117
upperneck 0.0290413 -7.98996 6.3275
head -0.238901 -4.05666 2.99081
rclavicle 8.26944e-014 -3.10104e-014
rhumerus -5.8541 1.88686 -80.9359
rradius 119.247
rwrist 26.4901
rhand 23.6633 -5.21037
rfingers 7.12502
rthumb 47.9312 -27.4552
lclavicle 8.26944e-014 -3.10104e-014
lhumerus -21.9531 -20.6752 85.2992
lradius 128.773
lwrist -13.3476
lhand 25.5506 43.3095
lfingers 7.12502
lthumb 49.6662 64.7057
rfemur -14.9023 -3.42752 14.9331
rtibia 48.6346
rfoot -23.3589 -18.4986
rtoes -14.7239
lfemur -12.4045 0.329835 -21.5294
ltibia 41.3387
lfoot -24.1678 7.32963
ltoes -16.1758
2433
root -0.0120128 17.253 -0.279196 -3.82008 3.92362 3.21932
lowerback 11.9595 4.5343 -2.82785
upperback 7.42305 5.73594 -0.724296
thorax 0.898472 2.80974 0.194438
lowerneck 4.19561 -5.97433 -5.16982
upperneck 0.241045 -8.15325 6.04427
head -0.152482 -4.13303 2.89674
rclavicle -5.46161e-014 1.11319e-014
rhumerus -5.91674 1.87219 -81.1352
rradius 118.556
rwrist 26.8163
rhand 24.1695 -5.26775
rfingers 7.12502
rthumb 48.3976 -27.2929
lclavicle -5.46161e-014 1.11319e-014
lhumerus -21.4556 -20.7265 84.5586
lradius 129.12
lwrist -13.0251
lhand 25.2474 43.3298
lfingers 7.12502
lthumb 49.3882 64.8679
rfemur -14.8073 -3.51889 15.0782
rtibia 48.0905
rfoot -23.1661 -18.3168
rtoes -14.2208
lfemur -12.3097 0.154256 -21.3951
ltibia 40.6523
lfoot -23.8288 7.50697
ltoes -16.9097
